<?xml version="1.0" ?><svg width="64px" height="64px" viewBox="0 0 64 64" xmlns="http://www.w3.org/2000/svg"><title/><g id="can"><ellipse cx="32" cy="8" rx="14" ry="5" style="fill:none;stroke:#000;stroke-linecap:round;stroke-linejoin:round;stroke-width:2px"/><path d="M41,8c0,1.1-1.36,2-3,2a14.66,14.66,0,0,1-4.38-1.1,1,1,0,0,1,0-1.8A14.66,14.66,0,0,1,38,6C39.64,6,41,6.9,41,8Z"/><path d="M18,8V9A2,2,0,0,1,17,10.76a1.92,1.92,0,0,0-.95,1.7V52.54a1.92,1.92,0,0,0,.95,1.7A2,2,0,0,1,18,56c0,2.76,6.27,5,14,5s14-2.24,14-5a2,2,0,0,1,1-1.76,1.92,1.92,0,0,0,1-1.7V12.46a1.92,1.92,0,0,0-1-1.7A2,2,0,0,1,46,9V8" style="fill:none;stroke:#000;stroke-linecap:round;stroke-linejoin:round;stroke-width:2px"/><path d="M48,13.4C44.35,15.59,38.54,17,32,17s-12.35-1.41-16-3.6" style="fill:none;stroke:#000;stroke-linecap:round;stroke-linejoin:round;stroke-width:2px"/><path d="M16,26.69A18.69,18.69,0,0,0,25.33,29C34,29,34,25,42.67,25a18.48,18.48,0,0,1,5.33.68" style="fill:none;stroke:#000;stroke-linecap:round;stroke-linejoin:round;stroke-width:2px"/><path d="M16,47.69A18.69,18.69,0,0,0,25.33,50C34,50,34,46,42.67,46a18.48,18.48,0,0,1,5.33.68" style="fill:none;stroke:#000;stroke-linecap:round;stroke-linejoin:round;stroke-width:2px"/></g></svg>