<?xml version="1.0" ?><svg width="64px" height="64px" viewBox="0 0 64 64" xmlns="http://www.w3.org/2000/svg"><title/><g id="jug"><path d="M41.65,18C47.31,22,51,29.56,51,37A22,22,0,0,1,7,37c0-7.44,3.69-15,9.35-19" style="fill:none;stroke:#000;stroke-linecap:round;stroke-linejoin:round;stroke-width:2px"/><path d="M5,1C15.5,1,15.5,5,26,5h1C37.5,5,37.5,1,48,1a1,1,0,0,1,0,2c-3.87,0-7,7.27-7,15" style="fill:none;stroke:#000;stroke-linecap:round;stroke-linejoin:round;stroke-width:2px"/><path d="M5,1c6.63,0,12,8.16,12,17" style="fill:none;stroke:#000;stroke-linecap:round;stroke-linejoin:round;stroke-width:2px"/><ellipse cx="29" cy="18" rx="12" ry="4" style="fill:none;stroke:#000;stroke-linecap:round;stroke-linejoin:round;stroke-width:2px"/><path d="M18,56v3c0,2.21,4.92,4,11,4s11-1.79,11-4V56" style="fill:none;stroke:#000;stroke-linejoin:round;stroke-width:2px"/><path d="M44.75,20A8,8,0,0,1,59,25V40a2,2,0,0,1-4,0V25a4,4,0,0,0-7.46-2" style="fill:none;stroke:#000;stroke-linecap:round;stroke-linejoin:round;stroke-width:2px"/><ellipse cx="29" cy="37" rx="22" ry="7" style="fill:none;stroke:#000;stroke-linejoin:round;stroke-width:2px"/></g></svg>