<?xml version="1.0" ?><svg width="64px" height="64px" viewBox="0 0 64 64" xmlns="http://www.w3.org/2000/svg"><title/><g id="machine"><path d="M53,42a14,14,0,0,1-28,0" style="fill:none;stroke:#000;stroke-linecap:round;stroke-miterlimit:10;stroke-width:2px"/><ellipse cx="39" cy="42" rx="14" ry="3" style="fill:none;stroke:#000;stroke-linecap:round;stroke-miterlimit:10;stroke-width:2px"/><path d="M59,46a3,3,0,0,0-6,0" style="fill:none;stroke:#000;stroke-linecap:round;stroke-miterlimit:10;stroke-width:2px"/><path d="M59,46c0,5-6,7-11,7" style="fill:none;stroke:#000;stroke-linecap:round;stroke-miterlimit:10;stroke-width:2px"/><path d="M1,61V5A4,4,0,0,1,5,1H51a4,4,0,0,1,4,4v8a2,2,0,0,1-2,2H22a3,3,0,0,0-3,3V54a3,3,0,0,0,3,3H57a2,2,0,0,1,2,2v4H3A2,2,0,0,1,1,61Z" style="fill:none;stroke:#000;stroke-linecap:round;stroke-linejoin:round;stroke-width:2px"/><path d="M47,15v4a2,2,0,0,1-2,2H33a2,2,0,0,1-2-2V15" style="fill:none;stroke:#000;stroke-linecap:round;stroke-miterlimit:10;stroke-width:2px"/><polyline points="41 21 41 25 37 25 37 21" style="fill:none;stroke:#000;stroke-linecap:round;stroke-linejoin:round;stroke-width:2px"/><line style="fill:none;stroke:#000;stroke-linecap:round;stroke-miterlimit:10;stroke-width:2px" x1="19" x2="55" y1="8" y2="8"/><line style="fill:none;stroke:#000;stroke-linecap:round;stroke-miterlimit:10;stroke-width:2px" x1="14" x2="15" y1="8" y2="8"/><line style="fill:none;stroke:#000;stroke-linecap:round;stroke-miterlimit:10;stroke-width:2px" x1="1" x2="10" y1="8" y2="8"/><rect height="4" style="fill:none;stroke:#000;stroke-linecap:round;stroke-linejoin:round;stroke-width:2px" width="8" x="6" y="19"/><line style="fill:none;stroke:#000;stroke-linecap:round;stroke-miterlimit:10;stroke-width:2px" x1="47" x2="61" y1="19" y2="19"/><rect height="6" rx="2" width="5" x="59" y="16"/></g></svg>