<?xml version="1.0" ?><svg width="64px" height="64px" viewBox="0 0 64 64" xmlns="http://www.w3.org/2000/svg"><title/><g data-name="bubble tea" id="bubble_tea"><path d="M47,16.68c1.9.95,3,2.09,3,3.32,0,3.31-8.06,6-18,6s-18-2.69-18-6c0-1.23,1.1-2.37,3-3.32" style="fill:none;stroke:#000;stroke-miterlimit:10;stroke-width:2px"/><path d="M14,20v6c0,3.31,8.06,6,18,6s18-2.69,18-6V20" style="fill:none;stroke:#000;stroke-miterlimit:10;stroke-width:2px"/><line style="fill:none;stroke:#000;stroke-linecap:round;stroke-miterlimit:10;stroke-width:2px" x1="19" x2="16" y1="59" y2="29"/><line style="fill:none;stroke:#000;stroke-linecap:round;stroke-miterlimit:10;stroke-width:2px" x1="48" x2="45" y1="29" y2="59"/><ellipse cx="32" cy="59" rx="13" ry="4" style="fill:none;stroke:#000;stroke-miterlimit:10;stroke-width:2px"/><path d="M47,18c0,2.21-6.72,4-15,4s-15-1.79-15-4V17a15,15,0,0,1,30,0Z" style="fill:none;stroke:#000;stroke-linecap:round;stroke-miterlimit:10;stroke-width:2px"/><circle cx="39" cy="11" r="2"/><path d="M39,11l6.45-8.89A2,2,0,0,1,47.24,1H58" style="fill:none;stroke:#000;stroke-linecap:round;stroke-linejoin:round;stroke-width:2px"/><circle cx="39" cy="42" r="3" style="fill:none;stroke:#000;stroke-miterlimit:10;stroke-width:2px"/><circle cx="33" cy="46" r="3" style="fill:none;stroke:#000;stroke-miterlimit:10;stroke-width:2px"/><circle cx="41" cy="49" r="2" style="fill:none;stroke:#000;stroke-miterlimit:10;stroke-width:2px"/><circle cx="23" cy="49" r="2" style="fill:none;stroke:#000;stroke-miterlimit:10;stroke-width:2px"/><circle cx="26" cy="43" r="3" style="fill:none;stroke:#000;stroke-miterlimit:10;stroke-width:2px"/><line style="fill:none;stroke:#000;stroke-linecap:round;stroke-linejoin:round;stroke-width:2px" x1="20" x2="21" y1="38" y2="37"/><line style="fill:none;stroke:#000;stroke-linecap:round;stroke-linejoin:round;stroke-width:2px" x1="31" x2="32" y1="37" y2="38"/><line style="fill:none;stroke:#000;stroke-linecap:round;stroke-linejoin:round;stroke-width:2px" x1="43" x2="44" y1="37" y2="36"/></g></svg>