<?xml version="1.0" ?><svg width="64px" height="64px" viewBox="0 0 64 64" xmlns="http://www.w3.org/2000/svg"><title/><g data-name="cup" id="cup-2"><path d="M39,21.61c8.29,1,14,3,14,5.39,0,3.31-11.19,6-25,6S3,30.31,3,27s11.19-6,25-6c2.43,0,4.78.08,7,.24" style="fill:none;stroke:#000;stroke-linecap:round;stroke-miterlimit:10;stroke-width:2px"/><path d="M53,27v1c0,15.46-11.19,26-25,26S3,43.46,3,28V27" style="fill:none;stroke:#000;stroke-linecap:round;stroke-miterlimit:10;stroke-width:2px"/><path d="M53,32a7.64,7.64,0,0,1,5-2,2.65,2.65,0,0,1,3,3v1a9,9,0,0,1-9,9s-3,0-4,1" style="fill:none;stroke:#000;stroke-linecap:round;stroke-miterlimit:10;stroke-width:2px"/><path d="M43,49c4.31,1.28,7,3,7,5,0,3.87-9.85,7-22,7S6,57.87,6,54c0-2,2.69-3.72,7-5" style="fill:none;stroke:#000;stroke-miterlimit:10;stroke-width:2px"/><ellipse cx="24" cy="34" rx="8.73" ry="7.19" style="fill:none;stroke:#000;stroke-miterlimit:10;stroke-width:2px" transform="translate(-17.01 26.93) rotate(-45)"/><path d="M29.05,27.54l22.55-24A2,2,0,1,1,54.42,6.4L30.46,29" style="fill:none;stroke:#000;stroke-linejoin:round;stroke-width:2px"/><line style="fill:none;stroke:#000;stroke-linecap:round;stroke-miterlimit:10;stroke-width:2px" x1="11" x2="10" y1="12" y2="11"/><line style="fill:none;stroke:#000;stroke-linecap:round;stroke-miterlimit:10;stroke-width:2px" x1="14" x2="15" y1="15" y2="16"/><line style="fill:none;stroke:#000;stroke-linecap:round;stroke-miterlimit:10;stroke-width:2px" x1="14" x2="15" y1="12" y2="11"/><line style="fill:none;stroke:#000;stroke-linecap:round;stroke-miterlimit:10;stroke-width:2px" x1="11" x2="10" y1="15" y2="16"/><line style="fill:none;stroke:#000;stroke-linecap:round;stroke-miterlimit:10;stroke-width:2px" x1="31" x2="30" y1="4" y2="3"/><line style="fill:none;stroke:#000;stroke-linecap:round;stroke-miterlimit:10;stroke-width:2px" x1="34" x2="35" y1="7" y2="8"/><line style="fill:none;stroke:#000;stroke-linecap:round;stroke-miterlimit:10;stroke-width:2px" x1="34" x2="35" y1="4" y2="3"/><line style="fill:none;stroke:#000;stroke-linecap:round;stroke-miterlimit:10;stroke-width:2px" x1="31" x2="30" y1="7" y2="8"/><line style="fill:none;stroke:#000;stroke-linecap:round;stroke-miterlimit:10;stroke-width:2px" x1="56" x2="55" y1="17" y2="16"/><line style="fill:none;stroke:#000;stroke-linecap:round;stroke-miterlimit:10;stroke-width:2px" x1="59" x2="60" y1="20" y2="21"/><line style="fill:none;stroke:#000;stroke-linecap:round;stroke-miterlimit:10;stroke-width:2px" x1="59" x2="60" y1="17" y2="16"/><line style="fill:none;stroke:#000;stroke-linecap:round;stroke-miterlimit:10;stroke-width:2px" x1="56" x2="55" y1="20" y2="21"/></g></svg>