<?xml version="1.0" ?><svg width="64px" height="64px" viewBox="0 0 64 64" data-name="paper cup" id="paper_cup" xmlns="http://www.w3.org/2000/svg"><title/><ellipse cx="32" cy="13" rx="15" ry="5" style="fill:none;stroke:#000;stroke-miterlimit:10;stroke-width:2px"/><path d="M47,13v5c0,2.76-6.72,5-15,5s-15-2.24-15-5V13" style="fill:none;stroke:#000;stroke-miterlimit:10;stroke-width:2px"/><path d="M17,17H16a2,2,0,0,0-2,2v4c0,3.31,8.06,6,18,6s18-2.69,18-6V19a2,2,0,0,0-2-2H47" style="fill:none;stroke:#000;stroke-miterlimit:10;stroke-width:2px"/><path d="M18,36.77A39,39,0,0,0,32,39a39,39,0,0,0,14-2.23" style="fill:none;stroke:#000;stroke-miterlimit:10;stroke-width:2px"/><path d="M20,50.47A43.36,43.36,0,0,0,32,52a43.36,43.36,0,0,0,12-1.53" style="fill:none;stroke:#000;stroke-miterlimit:10;stroke-width:2px"/><path d="M16,26l5,34c0,1.66,4.92,3,11,3s11-1.34,11-3l5-34" style="fill:none;stroke:#000;stroke-miterlimit:10;stroke-width:2px"/><ellipse cx="41" cy="13" rx="2" ry="1"/><path d="M41,13,45.49,2.23A2,2,0,0,1,47.33,1H54" style="fill:none;stroke:#000;stroke-linecap:round;stroke-miterlimit:10;stroke-width:2px"/></svg>