<?xml version="1.0" ?><svg width="64px" height="64px" viewBox="0 0 64 64" xmlns="http://www.w3.org/2000/svg"><title/><g id="tea"><ellipse cx="28" cy="29" rx="25" ry="6" style="fill:none;stroke:#000;stroke-linecap:round;stroke-miterlimit:10;stroke-width:2px"/><path d="M6,43A27.85,27.85,0,0,1,3,30V29" style="fill:none;stroke:#000;stroke-linecap:round;stroke-miterlimit:10;stroke-width:2px"/><path d="M53,29v1c0,15.46-11.19,26-25,26a25.2,25.2,0,0,1-12-3" style="fill:none;stroke:#000;stroke-linecap:round;stroke-miterlimit:10;stroke-width:2px"/><path d="M53,34a7.64,7.64,0,0,1,5-2,2.65,2.65,0,0,1,3,3v1a9,9,0,0,1-9,9s-3,0-4,1" style="fill:none;stroke:#000;stroke-linecap:round;stroke-miterlimit:10;stroke-width:2px"/><path d="M43,51c4.31,1.28,7,3,7,5,0,3.87-9.85,7-22,7a53.81,53.81,0,0,1-15.4-2" style="fill:none;stroke:#000;stroke-miterlimit:10;stroke-width:2px"/><polygon points="16 45 16 61 4 61 4 45 7 42 13 42 16 45" style="fill:none;stroke:#000;stroke-linejoin:round;stroke-width:2px"/><path d="M10,46V33a4,4,0,0,1,8,0v1" style="fill:none;stroke:#000;stroke-linecap:round;stroke-linejoin:round;stroke-width:2px"/><circle cx="10" cy="46" r="2"/><path d="M30,1c0,4.5-4,4.5-4,9s4,4.5,4,9" style="fill:none;stroke:#000;stroke-linecap:round;stroke-miterlimit:10;stroke-width:2px"/><path d="M11,5c0,4-4,4-4,8s4,4,4,8" style="fill:none;stroke:#000;stroke-linecap:round;stroke-miterlimit:10;stroke-width:2px"/><path d="M47,5c0,4-4,4-4,8s4,4,4,8" style="fill:none;stroke:#000;stroke-linecap:round;stroke-miterlimit:10;stroke-width:2px"/><line style="fill:none;stroke:#000;stroke-linecap:round;stroke-miterlimit:10;stroke-width:2px" x1="40" x2="41" y1="3" y2="2"/><line style="fill:none;stroke:#000;stroke-linecap:round;stroke-miterlimit:10;stroke-width:2px" x1="37" x2="36" y1="3" y2="2"/><line style="fill:none;stroke:#000;stroke-linecap:round;stroke-miterlimit:10;stroke-width:2px" x1="37" x2="36" y1="6" y2="7"/><line style="fill:none;stroke:#000;stroke-linecap:round;stroke-miterlimit:10;stroke-width:2px" x1="40" x2="41" y1="6" y2="7"/><line style="fill:none;stroke:#000;stroke-linecap:round;stroke-miterlimit:10;stroke-width:2px" x1="56" x2="57" y1="18" y2="17"/><line style="fill:none;stroke:#000;stroke-linecap:round;stroke-miterlimit:10;stroke-width:2px" x1="53" x2="52" y1="18" y2="17"/><line style="fill:none;stroke:#000;stroke-linecap:round;stroke-miterlimit:10;stroke-width:2px" x1="53" x2="52" y1="21" y2="22"/><line style="fill:none;stroke:#000;stroke-linecap:round;stroke-miterlimit:10;stroke-width:2px" x1="56" x2="57" y1="21" y2="22"/><line style="fill:none;stroke:#000;stroke-linecap:round;stroke-miterlimit:10;stroke-width:2px" x1="19" x2="20" y1="11" y2="10"/><line style="fill:none;stroke:#000;stroke-linecap:round;stroke-miterlimit:10;stroke-width:2px" x1="16" x2="15" y1="11" y2="10"/><line style="fill:none;stroke:#000;stroke-linecap:round;stroke-miterlimit:10;stroke-width:2px" x1="16" x2="15" y1="14" y2="15"/><line style="fill:none;stroke:#000;stroke-linecap:round;stroke-miterlimit:10;stroke-width:2px" x1="19" x2="20" y1="14" y2="15"/></g></svg>