<?xml version="1.0" ?><svg width="64px" height="64px" viewBox="0 0 64 64" xmlns="http://www.w3.org/2000/svg"><title/><g id="pot"><path d="M38,20c0-1.1,1.34-2,3-2s3,.9,3,2Z" style="fill:none;stroke:#000;stroke-linecap:round;stroke-linejoin:round;stroke-width:2px"/><path d="M22,30,21,14C21,8.48,30,4,41,4S61,8.48,61,14L60,31" style="fill:none;stroke:#000;stroke-linecap:round;stroke-linejoin:round;stroke-width:2px"/><path d="M27.06,6.83A32.68,32.68,0,0,1,41,4,32.49,32.49,0,0,1,55,6.87" style="fill:none;stroke:#000;stroke-linejoin:round;stroke-width:4px"/><line style="fill:none;stroke:#000;stroke-linecap:round;stroke-linejoin:round;stroke-width:2px" x1="22" x2="46" y1="31" y2="31"/><line style="fill:none;stroke:#000;stroke-linecap:round;stroke-linejoin:round;stroke-width:2px" x1="49" x2="50" y1="31" y2="31"/><line style="fill:none;stroke:#000;stroke-linecap:round;stroke-linejoin:round;stroke-width:2px" x1="53" x2="60" y1="31" y2="31"/><path d="M21.39,52.13a2,2,0,0,0-1.58-1.22C16.33,50.35,13,47.38,13,42V39c0-5-5-9-10-9,1.66,0,4-2.34,4-4,9,1,11.1,4.18,14,8,0-6.63,9-12,20-12s20,5.37,20,12V49c0,6.63-9,12-20,12C32.18,61,24,58.32,21.39,52.13Z" style="fill:none;stroke:#000;stroke-linecap:round;stroke-linejoin:round;stroke-width:2px"/></g></svg>