<?xml version="1.0" ?><svg width="64px" height="64px" viewBox="0 0 64 64" xmlns="http://www.w3.org/2000/svg"><title/><g id="teabag"><path d="M22,40V56a2,2,0,0,1-2,2H12a2,2,0,0,1-2-2V40l6-4Z" style="fill:none;stroke:#000;stroke-linejoin:round;stroke-width:2px"/><polygon points="47.78 27 54 32 54 61 30 61 30 32 36.26 27 47.78 27" style="fill:none;stroke:#000;stroke-linecap:round;stroke-linejoin:round;stroke-width:2px"/><path d="M16,43V16a13,13,0,0,1,26,0V32" style="fill:none;stroke:#000;stroke-linecap:round;stroke-linejoin:round;stroke-width:2px"/><circle cx="16" cy="44" r="2"/><line style="fill:none;stroke:#000;stroke-miterlimit:10;stroke-width:2px" x1="30" x2="54" y1="37" y2="37"/><line style="fill:none;stroke:#000;stroke-linecap:round;stroke-linejoin:round;stroke-width:2px" x1="35" x2="35" y1="44" y2="43"/><line style="fill:none;stroke:#000;stroke-linecap:round;stroke-linejoin:round;stroke-width:2px" x1="41" x2="42" y1="47" y2="46"/><line style="fill:none;stroke:#000;stroke-linecap:round;stroke-linejoin:round;stroke-width:2px" x1="49" x2="50" y1="41" y2="42"/><line style="fill:none;stroke:#000;stroke-linecap:round;stroke-linejoin:round;stroke-width:2px" x1="45" x2="46" y1="53" y2="53"/><line style="fill:none;stroke:#000;stroke-linecap:round;stroke-linejoin:round;stroke-width:2px" x1="37" x2="38" y1="55" y2="56"/><circle cx="42" cy="32" r="2"/></g></svg>