<?xml version="1.0" ?><svg width="64px" height="64px" viewBox="0 0 64 64" xmlns="http://www.w3.org/2000/svg"><title/><g id="cup"><ellipse cx="28" cy="29" rx="25" ry="6" style="fill:none;stroke:#000;stroke-linecap:round;stroke-miterlimit:10;stroke-width:2px"/><path d="M53,29v1c0,15.46-11.19,26-25,26S3,45.46,3,30V29" style="fill:none;stroke:#000;stroke-linecap:round;stroke-miterlimit:10;stroke-width:2px"/><path d="M53,34a7.64,7.64,0,0,1,5-2,2.65,2.65,0,0,1,3,3v1a9,9,0,0,1-9,9s-3,0-4,1" style="fill:none;stroke:#000;stroke-linecap:round;stroke-miterlimit:10;stroke-width:2px"/><path d="M43,51c4.31,1.28,7,3,7,5,0,3.87-9.85,7-22,7S6,59.87,6,56c0-2,2.69-3.72,7-5" style="fill:none;stroke:#000;stroke-miterlimit:10;stroke-width:2px"/><path d="M52.36,37.21l-.72-1.87C45.67,37.67,37.06,39,28,39S10.33,37.67,4.36,35.34l-.72,1.87.68.25-.68,1.75C9.82,41.62,18.7,43,28,43s18.18-1.38,24.36-3.79l-.68-1.75Z"/><path d="M30,1c0,4.5-4,4.5-4,9s4,4.5,4,9" style="fill:none;stroke:#000;stroke-linecap:round;stroke-miterlimit:10;stroke-width:2px"/><path d="M11,5c0,4-4,4-4,8s4,4,4,8" style="fill:none;stroke:#000;stroke-linecap:round;stroke-miterlimit:10;stroke-width:2px"/><path d="M47,5c0,4-4,4-4,8s4,4,4,8" style="fill:none;stroke:#000;stroke-linecap:round;stroke-miterlimit:10;stroke-width:2px"/><line style="fill:none;stroke:#000;stroke-linecap:round;stroke-miterlimit:10;stroke-width:2px" x1="39" x2="40" y1="4" y2="3"/><line style="fill:none;stroke:#000;stroke-linecap:round;stroke-miterlimit:10;stroke-width:2px" x1="36" x2="35" y1="4" y2="3"/><line style="fill:none;stroke:#000;stroke-linecap:round;stroke-miterlimit:10;stroke-width:2px" x1="36" x2="35" y1="7" y2="8"/><line style="fill:none;stroke:#000;stroke-linecap:round;stroke-miterlimit:10;stroke-width:2px" x1="39" x2="40" y1="7" y2="8"/><line style="fill:none;stroke:#000;stroke-linecap:round;stroke-miterlimit:10;stroke-width:2px" x1="60" x2="61" y1="19" y2="18"/><line style="fill:none;stroke:#000;stroke-linecap:round;stroke-miterlimit:10;stroke-width:2px" x1="57" x2="56" y1="19" y2="18"/><line style="fill:none;stroke:#000;stroke-linecap:round;stroke-miterlimit:10;stroke-width:2px" x1="57" x2="56" y1="22" y2="23"/><line style="fill:none;stroke:#000;stroke-linecap:round;stroke-miterlimit:10;stroke-width:2px" x1="60" x2="61" y1="22" y2="23"/><line style="fill:none;stroke:#000;stroke-linecap:round;stroke-miterlimit:10;stroke-width:2px" x1="19" x2="20" y1="14" y2="13"/><line style="fill:none;stroke:#000;stroke-linecap:round;stroke-miterlimit:10;stroke-width:2px" x1="16" x2="15" y1="14" y2="13"/><line style="fill:none;stroke:#000;stroke-linecap:round;stroke-miterlimit:10;stroke-width:2px" x1="16" x2="15" y1="17" y2="18"/><line style="fill:none;stroke:#000;stroke-linecap:round;stroke-miterlimit:10;stroke-width:2px" x1="19" x2="20" y1="17" y2="18"/></g></svg>