<?xml version="1.0" ?><svg width="64px" height="64px" viewBox="0 0 64 64" xmlns="http://www.w3.org/2000/svg"><title/><g id="donut"><circle cx="32" cy="32" r="29" style="fill:none;stroke:#000;stroke-miterlimit:10;stroke-width:2px"/><circle cx="32" cy="32" r="15" style="fill:none;stroke:#000;stroke-miterlimit:10;stroke-width:2px"/><path d="M17,37a2,2,0,0,0-2,2v1a2,2,0,0,1-4,0V26a2,2,0,0,0-4,0v5a2,2,0,0,1-4,0" style="fill:none;stroke:#000;stroke-linecap:round;stroke-miterlimit:10;stroke-width:2px"/><path d="M47,33a2,2,0,0,1,2,2v3a2,2,0,0,0,4,0V29a2,2,0,0,1,4,0v3a2,2,0,0,0,2,2h1" style="fill:none;stroke:#000;stroke-linecap:round;stroke-miterlimit:10;stroke-width:2px"/><line style="fill:none;stroke:#000;stroke-linecap:round;stroke-miterlimit:10;stroke-width:2px" x1="15" x2="16" y1="19" y2="20"/><line style="fill:none;stroke:#000;stroke-linecap:round;stroke-miterlimit:10;stroke-width:2px" x1="18" x2="19" y1="12" y2="11"/><line style="fill:none;stroke:#000;stroke-linecap:round;stroke-miterlimit:10;stroke-width:2px" x1="30" x2="31" y1="12" y2="13"/><line style="fill:none;stroke:#000;stroke-linecap:round;stroke-miterlimit:10;stroke-width:2px" x1="38" x2="39" y1="9" y2="9"/><line style="fill:none;stroke:#000;stroke-linecap:round;stroke-miterlimit:10;stroke-width:2px" x1="45" x2="46" y1="17" y2="16"/><line style="fill:none;stroke:#000;stroke-linecap:round;stroke-miterlimit:10;stroke-width:2px" x1="52" x2="52" y1="21" y2="22"/></g></svg>